<mxfile host="app.diagrams.net" modified="2024-06-25T12:13:43.505Z" agent="Mozilla/5.0 (Windows NT 10.0; Win64; x64) AppleWebKit/537.36 (KHTML, like Gecko) Chrome/126.0.0.0 Safari/537.36" etag="CV2C-12ypNcKvVkLvdVc" version="24.6.2" type="github">
  <diagram name="Page-1" id="3MonxlLLcVzK1O01Amrk">
    <mxGraphModel dx="2074" dy="1098" grid="1" gridSize="10" guides="1" tooltips="1" connect="1" arrows="1" fold="1" page="1" pageScale="1" pageWidth="850" pageHeight="1100" math="0" shadow="0">
      <root>
        <mxCell id="0" />
        <mxCell id="1" parent="0" />
        <mxCell id="bzgbEGntM1ouqCrIw5Lc-1" value="FTTH and FTTB with multiple (8)&amp;nbsp;GEM ports | more than one service port/customer" style="rounded=0;whiteSpace=wrap;html=1;" parent="1" vertex="1">
          <mxGeometry x="160" y="60" width="500" height="60" as="geometry" />
        </mxCell>
        <mxCell id="bzgbEGntM1ouqCrIw5Lc-12" value="" style="edgeStyle=orthogonalEdgeStyle;rounded=0;orthogonalLoop=1;jettySize=auto;html=1;" parent="1" source="bzgbEGntM1ouqCrIw5Lc-2" target="bzgbEGntM1ouqCrIw5Lc-8" edge="1">
          <mxGeometry relative="1" as="geometry" />
        </mxCell>
        <mxCell id="bzgbEGntM1ouqCrIw5Lc-2" value="GPON" style="rounded=0;whiteSpace=wrap;html=1;" parent="1" vertex="1">
          <mxGeometry x="150" y="220" width="120" height="60" as="geometry" />
        </mxCell>
        <mxCell id="bzgbEGntM1ouqCrIw5Lc-10" style="edgeStyle=orthogonalEdgeStyle;rounded=0;orthogonalLoop=1;jettySize=auto;html=1;entryX=0.5;entryY=0;entryDx=0;entryDy=0;" parent="1" source="bzgbEGntM1ouqCrIw5Lc-3" target="bzgbEGntM1ouqCrIw5Lc-7" edge="1">
          <mxGeometry relative="1" as="geometry" />
        </mxCell>
        <mxCell id="bzgbEGntM1ouqCrIw5Lc-3" value="XGS-PON" style="rounded=0;whiteSpace=wrap;html=1;" parent="1" vertex="1">
          <mxGeometry x="440" y="220" width="120" height="60" as="geometry" />
        </mxCell>
        <mxCell id="bzgbEGntM1ouqCrIw5Lc-5" value="" style="endArrow=none;html=1;rounded=0;exitX=0.317;exitY=-0.017;exitDx=0;exitDy=0;exitPerimeter=0;" parent="1" source="bzgbEGntM1ouqCrIw5Lc-2" edge="1">
          <mxGeometry width="50" height="50" relative="1" as="geometry">
            <mxPoint x="240" y="170" as="sourcePoint" />
            <mxPoint x="290" y="120" as="targetPoint" />
          </mxGeometry>
        </mxCell>
        <mxCell id="bzgbEGntM1ouqCrIw5Lc-6" value="" style="endArrow=none;html=1;rounded=0;exitX=0.75;exitY=0;exitDx=0;exitDy=0;" parent="1" source="bzgbEGntM1ouqCrIw5Lc-3" edge="1">
          <mxGeometry width="50" height="50" relative="1" as="geometry">
            <mxPoint x="490" y="170" as="sourcePoint" />
            <mxPoint x="440" y="120" as="targetPoint" />
          </mxGeometry>
        </mxCell>
        <mxCell id="bzgbEGntM1ouqCrIw5Lc-7" value="line profile 12" style="rounded=1;whiteSpace=wrap;html=1;" parent="1" vertex="1">
          <mxGeometry x="440" y="320" width="120" height="60" as="geometry" />
        </mxCell>
        <mxCell id="bzgbEGntM1ouqCrIw5Lc-8" value="line profile 13" style="rounded=1;whiteSpace=wrap;html=1;" parent="1" vertex="1">
          <mxGeometry x="150" y="320" width="120" height="60" as="geometry" />
        </mxCell>
        <mxCell id="bzgbEGntM1ouqCrIw5Lc-17" style="edgeStyle=orthogonalEdgeStyle;rounded=0;orthogonalLoop=1;jettySize=auto;html=1;" parent="1" source="bzgbEGntM1ouqCrIw5Lc-14" edge="1">
          <mxGeometry relative="1" as="geometry">
            <mxPoint x="145" y="620" as="targetPoint" />
          </mxGeometry>
        </mxCell>
        <mxCell id="bzgbEGntM1ouqCrIw5Lc-14" value="line profile 11 (old for GPON)" style="rounded=0;whiteSpace=wrap;html=1;" parent="1" vertex="1">
          <mxGeometry x="60" y="500" width="170" height="60" as="geometry" />
        </mxCell>
        <mxCell id="IIY8fVF-V4Cz50nzMgpz-3" value="" style="edgeStyle=orthogonalEdgeStyle;rounded=0;orthogonalLoop=1;jettySize=auto;html=1;" edge="1" parent="1" source="bzgbEGntM1ouqCrIw5Lc-15" target="bzgbEGntM1ouqCrIw5Lc-18">
          <mxGeometry relative="1" as="geometry" />
        </mxCell>
        <mxCell id="bzgbEGntM1ouqCrIw5Lc-15" value="line profile 12 and 13" style="rounded=0;whiteSpace=wrap;html=1;" parent="1" vertex="1">
          <mxGeometry x="350" y="500" width="360" height="60" as="geometry" />
        </mxCell>
        <mxCell id="bzgbEGntM1ouqCrIw5Lc-16" value="Only 1 service port | service port = ANP tag -1" style="rounded=1;whiteSpace=wrap;html=1;" parent="1" vertex="1">
          <mxGeometry x="30" y="620" width="270" height="60" as="geometry" />
        </mxCell>
        <mxCell id="bzgbEGntM1ouqCrIw5Lc-18" value="8 service ports, they are set via IT" style="rounded=1;whiteSpace=wrap;html=1;fillColor=#f8cecc;strokeColor=#b85450;" parent="1" vertex="1">
          <mxGeometry x="395" y="620" width="270" height="60" as="geometry" />
        </mxCell>
        <mxCell id="bzgbEGntM1ouqCrIw5Lc-19" value="" style="endArrow=none;dashed=1;html=1;dashPattern=1 3;strokeWidth=4;rounded=0;" parent="1" edge="1">
          <mxGeometry width="50" height="50" relative="1" as="geometry">
            <mxPoint x="40" y="440" as="sourcePoint" />
            <mxPoint x="780" y="440" as="targetPoint" />
          </mxGeometry>
        </mxCell>
      </root>
    </mxGraphModel>
  </diagram>
</mxfile>
